<svg width="199" height="51" viewBox="0 0 199 51" fill="none" xmlns="http://www.w3.org/2000/svg">
<path d="M12.1998 41.5C15.4398 41.5 18.1598 40.2 19.9798 37.86L16.2598 34.68C15.1598 35.88 13.7198 36.64 12.0398 36.64C9.33984 36.64 7.19984 34.54 7.19984 31.3C7.19984 28.08 9.35984 25.96 12.0598 25.96C13.7598 25.96 15.0198 26.64 16.1998 27.9L19.9598 24.76C18.1798 22.42 15.4398 21.1 12.1998 21.1C6.01984 21.1 1.87984 25.44 1.87984 31.3C1.87984 37.18 6.01984 41.5 12.1998 41.5ZM32.6133 41.5C38.6533 41.5 43.1133 37.14 43.1133 31.3C43.1133 25.46 38.6533 21.1 32.6133 21.1C26.5933 21.1 22.1533 25.46 22.1533 31.3C22.1533 37.14 26.5933 41.5 32.6133 41.5ZM32.6133 36.64C29.6733 36.64 27.4733 34.44 27.4733 31.3C27.4733 28.16 29.6733 25.96 32.6133 25.96C35.5533 25.96 37.7733 28.16 37.7733 31.3C37.7733 34.44 35.5533 36.64 32.6133 36.64ZM55.5567 41.5C58.2167 41.5 60.0967 40.42 61.3567 38.86V41H66.4567V12.2H61.2567V23.64C59.9967 22.12 58.1567 21.1 55.5567 21.1C50.2167 21.1 46.1767 25.48 46.1767 31.3C46.1767 37.12 50.2167 41.5 55.5567 41.5ZM56.5167 36.64C53.4567 36.64 51.5167 34.26 51.5167 31.3C51.5167 28.34 53.4567 25.96 56.5167 25.96C59.4967 25.96 61.5167 28.24 61.5167 31.3C61.5167 34.36 59.4967 36.64 56.5167 36.64ZM80.807 41.5C84.067 41.5 86.867 40.58 89.067 38.56L86.007 35.2C84.607 36.38 82.787 37.06 81.107 37.06C78.647 37.06 76.687 35.84 76.127 33.04H89.867C89.927 32.6 89.967 31.88 89.967 31.28C89.947 25.24 86.127 21.1 80.547 21.1C74.747 21.1 70.747 25.26 70.747 31.36C70.747 37.46 74.867 41.5 80.807 41.5ZM76.147 29.48C76.607 27.08 78.047 25.6 80.507 25.6C82.747 25.6 84.247 27 84.727 29.48H76.147ZM99.4327 41V12.2H94.2127V41H99.4327ZM113.096 41.5C115.756 41.5 117.636 40.42 118.896 38.86V41H123.996V21.62H118.896V23.76C117.616 22.18 115.756 21.1 113.096 21.1C107.756 21.1 103.716 25.48 103.716 31.3C103.716 37.12 107.756 41.5 113.096 41.5ZM114.056 36.64C110.996 36.64 109.056 34.26 109.056 31.3C109.056 28.34 110.996 25.96 114.056 25.96C117.036 25.96 119.056 28.24 119.056 31.3C119.056 34.36 117.036 36.64 114.056 36.64ZM134.346 49L149.126 21.62H143.406L138.246 31.58L132.926 21.62H127.006L135.366 36.88L128.626 49H134.346ZM160.104 41.5C163.364 41.5 166.164 40.58 168.364 38.56L165.304 35.2C163.904 36.38 162.084 37.06 160.404 37.06C157.944 37.06 155.984 35.84 155.424 33.04H169.164C169.224 32.6 169.264 31.88 169.264 31.28C169.244 25.24 165.424 21.1 159.844 21.1C154.044 21.1 150.044 25.26 150.044 31.36C150.044 37.46 154.164 41.5 160.104 41.5ZM155.444 29.48C155.904 27.08 157.344 25.6 159.804 25.6C162.044 25.6 163.544 27 164.024 29.48H155.444ZM178.73 41V30.44C178.73 27.56 180.39 26.08 182.81 26.08C183.87 26.08 185.11 26.32 185.97 26.7L186.75 21.52C186.03 21.26 185.15 21.1 184.03 21.1C181.65 21.1 179.79 21.92 178.57 23.74V21.62H173.51V41H178.73Z" fill="#1A202C"></path>
<path d="M193.126 41.5C195.186 41.5 196.986 39.7 196.986 37.6C196.986 35.52 195.186 33.74 193.126 33.74C191.046 33.74 189.226 35.52 189.226 37.6C189.226 39.7 191.046 41.5 193.126 41.5Z" fill="#4FD1C5"></path>
</svg>
