<?xml version="1.0" encoding="UTF-8" standalone="no"?>
<!-- Created with Inkscape (http://www.inkscape.org/) -->

<svg
   width="548.78253mm"
   height="139.62248mm"
   viewBox="0 0 548.78252 139.62248"
   version="1.1"
   id="svg5"
   xml:space="preserve"
   inkscape:version="1.2.1 (8a69933317, 2022-10-28, custom)"
   sodipodi:docname="palace_lower.svg"
   xmlns:inkscape="http://www.inkscape.org/namespaces/inkscape"
   xmlns:sodipodi="http://sodipodi.sourceforge.net/DTD/sodipodi-0.dtd"
   xmlns="http://www.w3.org/2000/svg"
   xmlns:svg="http://www.w3.org/2000/svg"><sodipodi:namedview
     id="namedview7"
     pagecolor="#505050"
     bordercolor="#eeeeee"
     borderopacity="1"
     inkscape:showpageshadow="0"
     inkscape:pageopacity="0"
     inkscape:pagecheckerboard="0"
     inkscape:deskcolor="#505050"
     inkscape:document-units="mm"
     showgrid="false"
     inkscape:zoom="0.5"
     inkscape:cx="1016"
     inkscape:cy="597"
     inkscape:window-width="1920"
     inkscape:window-height="1016"
     inkscape:window-x="0"
     inkscape:window-y="0"
     inkscape:window-maximized="1"
     inkscape:current-layer="layer1" /><defs
     id="defs2" /><g
     inkscape:label="Layer 1"
     inkscape:groupmode="layer"
     id="layer1"
     transform="translate(137.37816,-31.149485)"><path
       id="path383"
       style="fill:#10182f;stroke:none;stroke-width:0.264583px;stroke-linecap:butt;stroke-linejoin:miter;stroke-opacity:1;fill-opacity:1"
       d="M -111.59937 78.915562 C -114.88735 78.908962 -118.11719 81.154164 -119.44127 85.670188 L -119.44127 100.95918 L -137.37816 115.64304 L -137.37816 170.77197 L 411.40436 170.77197 L 411.40436 115.47767 L 396.47918 101.40773 L 396.47918 86.11874 C 395.15511 81.602716 391.92474 79.357494 388.63676 79.364113 C 385.34878 79.370713 382.0028 81.629193 380.44656 86.11874 L 380.44656 102.21698 L 250.82708 108.76129 L 249.19101 105.12947 C 246.2292 102.16067 243.44596 101.9607 240.87989 105.12947 L 238.78338 108.76129 L 35.151877 108.76129 L 33.054848 105.12947 C 31.771802 103.54508 30.434664 102.8028 29.047857 102.8278 C 27.661049 102.8528 26.224627 103.64507 24.743727 105.12947 L 23.108168 108.76129 L -103.40866 101.83664 L -103.40866 85.670188 C -104.9649 81.180641 -108.31142 78.922182 -111.59937 78.915562 z " /><path
       style="fill:#efba03;fill-opacity:1;stroke:none;stroke-width:0.02;stroke-linecap:butt;stroke-linejoin:miter;stroke-dasharray:none;stroke-opacity:1"
       d="m 121.78438,95.200065 v 13.561015 l 32.20099,-0.0211 V 95.200052 l -9.67352,-0.822699 h -12.85864 l -9.66883,0.822699"
       id="path1102"
       inkscape:label="Tower_base" /><path
       style="fill:#10182f;fill-opacity:1;stroke:none;stroke-width:0.1;stroke-linecap:butt;stroke-linejoin:miter;stroke-dasharray:none;stroke-opacity:1"
       d="m 153.02421,95.118308 c 0.0164,-6.796195 -2.74069,-12.221414 -6.84183,-16.982302 h -16.5775 c -6.2971,7.237268 -6.27805,12.006701 -6.7663,16.974346 l 8.61463,-0.732999 h 12.85864 z"
       id="path1104"
       sodipodi:nodetypes="cccc"
       inkscape:label="Roof_middle" /><path
       style="color:#000000;fill:#bd1421;fill-opacity:1;stroke-width:1.09542;stroke-linejoin:round;-inkscape-stroke:none"
       d="m 138.62369,31.726046 c -0.0367,4.810004 0.0388,9.698423 -0.006,13.815792 4.49643,-2.157494 9.31826,-4.481292 13.92219,-6.696135 0.20076,-0.09611 0.20076,-0.33748 0,-0.433594 -4.56834,-2.058142 -9.54697,-4.788487 -13.91565,-6.686063 z"
       id="path43468"
       sodipodi:nodetypes="ccccc"
       inkscape:label="Flag" /><path
       id="path1173"
       style="fill:#efba03;fill-opacity:1;stroke:none;stroke-width:0.02;stroke-linecap:butt;stroke-linejoin:miter;stroke-dasharray:none;stroke-opacity:1"
       d="m 135.46875,63.064849 -4.06539,0.440283 v 8.607744 h 0.005 c -0.78757,0.09723 -1.57375,0.211352 -2.35902,0.343648 v 3.22616 l 0.55603,2.45308 h 16.57729 l 0.74104,-2.45308 0.0134,-3.22616 c -0.71623,-0.118744 -1.43175,-0.222768 -2.14612,-0.313159 h 0.005 v -8.638233 l -4.37338,-0.440283 z"
       inkscape:label="Tower_top" /><path
       id="path1919"
       style="fill:#10182f;fill-opacity:1;stroke:none;stroke-width:0.02;stroke-linecap:butt;stroke-linejoin:miter;stroke-dasharray:none;stroke-opacity:1;paint-order:fill markers stroke"
       d="m 137.26709,31.149485 v 25.916764 l -0.65784,2.550232 -4.53513,2.033468 v 1.78232 l 3.39463,-0.36742 h 4.9537 l 3.39566,0.341581 v -1.756481 l -4.06125,-2.033468 -0.88573,-2.550232 V 31.149485 Z"
       inkscape:label="Roof_top" /></g></svg>
